# xmcd
#
# Track frame offsets:
#	150
#	27518
#	46766
#	67251
#	92926
#	112957
#	149354
#	171887
#	203337
#	227035
#	258435
#	276355
#	306665
#
# Disc length: 4292 seconds
#
# Revision: 0
# Processed by: cddbd v1.5.2PL0 Copyright (c) Steve Scherf et al.
# Submitted via: audiograbber 1.83.01
#
DISCID=c010c20d
DTITLE=—борник - Depression Blues. CD 2
DYEAR=1900
DGENRE=Blues
TTITLE0=Moody Waters - Country Jail
TTITLE1=J. Allen Blues Reviev - 500 Blue Balls
TTITLE2=Joe Williams - Nobody Knows
TTITLE3=Barry Levenson - Late Show
TTITLE4=Jimmy Witherspoon - Nobody Knows You Then...
TTITLE5=Junior Parker - Funny How Time Slips Alvay
TTITLE6=Edpie Vinson - Ahard Adream
TTITLE7=Buddy Guy - Dedication To The...
TTITLE8=Barry Goloberg - More Soul
TTITLE9=M. Wat - Long Distance Call
TTITLE10=J. Alien Blues R. - Between Friends
TTITLE11=Jimmy Me Grift - Georgia On My Mind
TTITLE12=G. Outh Moore - Somedody Got To Go
EXTD=
EXTT0=
EXTT1=
EXTT2=
EXTT3=
EXTT4=
EXTT5=
EXTT6=
EXTT7=
EXTT8=
EXTT9=
EXTT10=
EXTT11=
EXTT12=
PLAYORDER=
